<?xml version="1.0" encoding="UTF-8" standalone="no"?>
<!-- Generator: Adobe Illustrator 19.0.0, SVG Export Plug-In . SVG Version: 6.00 Build 0)  -->

<svg
   xmlns:dc="http://purl.org/dc/elements/1.1/"
   xmlns:cc="http://creativecommons.org/ns#"
   xmlns:rdf="http://www.w3.org/1999/02/22-rdf-syntax-ns#"
   xmlns:svg="http://www.w3.org/2000/svg"
   xmlns="http://www.w3.org/2000/svg"
   xmlns:xlink="http://www.w3.org/1999/xlink"
   xmlns:sodipodi="http://sodipodi.sourceforge.net/DTD/sodipodi-0.dtd"
   xmlns:inkscape="http://www.inkscape.org/namespaces/inkscape"
   version="1.1"
   id="Layer_1"
   x="0px"
   y="0px"
   viewBox="-14 10.6 30.399999 30.4"
   xml:space="preserve"
   sodipodi:docname="icon.svg"
   inkscape:export-filename="icon.png"
   inkscape:export-xdpi="1999.7"
   inkscape:export-ydpi="1999.7"
   inkscape:version="0.92.2 2405546, 2018-03-11"
   width="30.4"
   height="30.4"><metadata
   id="metadata43"><rdf:RDF><cc:Work
       rdf:about=""><dc:format>image/svg+xml</dc:format><dc:type
         rdf:resource="http://purl.org/dc/dcmitype/StillImage" /><dc:title /></cc:Work></rdf:RDF></metadata><defs
   id="defs41"><linearGradient
   inkscape:collect="always"
   id="linearGradient918"><stop
     style="stop-color:#ffffff;stop-opacity:1;"
     offset="0"
     id="stop914" /><stop
     style="stop-color:#ffffff;stop-opacity:0;"
     offset="1"
     id="stop916" /></linearGradient>
		
	<linearGradient
   inkscape:collect="always"
   xlink:href="#linearGradient918"
   id="linearGradient920"
   x1="-14"
   y1="25.8"
   x2="5.1"
   y2="25.8"
   gradientUnits="userSpaceOnUse" /></defs><sodipodi:namedview
   pagecolor="#ffffff"
   bordercolor="#666666"
   borderopacity="1"
   objecttolerance="10"
   gridtolerance="10"
   guidetolerance="10"
   inkscape:pageopacity="0"
   inkscape:pageshadow="2"
   inkscape:window-width="1920"
   inkscape:window-height="1015"
   id="namedview39"
   showgrid="false"
   inkscape:zoom="22.627417"
   inkscape:cx="16.162332"
   inkscape:cy="5.5653742"
   inkscape:window-x="0"
   inkscape:window-y="33"
   inkscape:window-maximized="1"
   inkscape:current-layer="g36"
   showguides="false" />
<style
   type="text/css"
   id="style2">
	.st0{fill:#2AB380;}
	.st1{clip-path:url(#SVGID_4_);}
</style>
<g
   id="g36">
	
		<path
   inkscape:connector-curvature="0"
   style="opacity:0.5;fill:#311b92;stroke:none;stroke-width:0.42978713;stroke-linecap:butt;stroke-linejoin:miter;stroke-miterlimit:4;stroke-dasharray:none;stroke-opacity:1"
   d="m 3.1386722,16.301172 c -2.821556,0 -5.045711,0.84633 -6.6718752,2.537109 -1.615395,1.69078 -2.423828,4.010151 -2.423828,6.960938 0,2.907711 0.803578,5.219322 2.408203,6.93164 L 26.851562,63.129297 38.755859,47.832422 8.355469,17.432031 C 7.537002,17.055106 6.692626,16.775266 5.820312,16.592188 4.947999,16.398337 4.054062,16.301172 3.1386722,16.301172 Z"
   id="path907-3" /><path
   style="fill:#311b92;stroke:none;stroke-width:0.42978713;stroke-linecap:butt;stroke-linejoin:miter;stroke-miterlimit:4;stroke-dasharray:none;stroke-opacity:1;opacity:0.25"
   d="M 8.1035156 13.910156 C 8.1025087 13.921534 8.1025495 13.933921 8.1015625 13.945312 C 8.1024744 13.934679 8.104533 13.924677 8.1054688 13.914062 L 8.1035156 13.910156 z M 8.0507812 15.039062 C 8.0500712 15.093873 8.0429688 15.143821 8.0429688 15.199219 C 8.0429687 16.28961 8.1569397 17.29618 8.3828125 18.21875 C 8.1571621 17.296461 8.0449219 16.291563 8.0449219 15.201172 C 8.0449219 15.145708 8.0502105 15.094082 8.0507812 15.039062 z M 8.3828125 18.21875 C 8.5333944 18.833797 8.733504 19.410837 8.984375 19.951172 C 8.7336523 19.411024 8.5332461 18.83361 8.3828125 18.21875 z M 22.355469 20.789062 L 22.355469 23.535156 C 21.526233 23.922851 20.665336 24.214356 19.771484 24.408203 C 18.888402 24.60205 17.946857 24.699219 16.945312 24.699219 C 14.22068 24.699219 12.055797 23.843177 10.451172 22.130859 L 40.851562 52.529297 L 46.648438 45.082031 L 22.355469 20.789062 z "
   transform="translate(-14,10.6)"
   id="path907" /><image
   sodipodi:absref="/home/marmis/Documents/Unicamp/MC202/29BEB0A4562E727D.jpeg"
   xlink:href="29BEB0A4562E727D.jpeg"
   style="display:none;overflow:visible;enable-background:new"
   width="1450"
   height="242"
   transform="matrix(0.24,0,0,0.238,135,7)"
   id="image4">
	</image>
	
	
	
<text
   xml:space="preserve"
   style="font-style:normal;font-variant:normal;font-weight:normal;font-stretch:normal;font-size:33.08328247px;line-height:1.25;font-family:'ADAM.CG PRO';-inkscape-font-specification:'ADAM.CG PRO';letter-spacing:0px;word-spacing:0px;fill:#311b92;fill-opacity:1;stroke:none;stroke-width:0.82708198;"
   x="-7.7815943"
   y="34.830055"
   id="text829"><tspan
     sodipodi:role="line"
     id="tspan827"
     x="-7.7815943"
     y="34.830055"
     style="font-style:normal;font-variant:normal;font-weight:normal;font-stretch:normal;font-family:'Noto Sans Glagolitic';-inkscape-font-specification:'Noto Sans Glagolitic';fill:#311b92;stroke-width:0.82708198;stroke:none;">c</tspan></text>
<g
   aria-label="c"
   style="font-style:normal;font-variant:normal;font-weight:normal;font-stretch:normal;font-size:33.08328247px;line-height:1.25;font-family:'ADAM.CG PRO';-inkscape-font-specification:'ADAM.CG PRO';letter-spacing:0px;word-spacing:0px;fill:#317b92;fill-opacity:1;stroke:none;stroke-width:0.82708198"
   id="text829-5" />

<g
   aria-label="c"
   style="font-style:normal;font-variant:normal;font-weight:normal;font-stretch:normal;font-size:33.08328247px;line-height:1.25;font-family:'ADAM.CG PRO';-inkscape-font-specification:'ADAM.CG PRO';letter-spacing:0px;word-spacing:0px;fill:none;fill-opacity:1;stroke:#000000;stroke-width:0.35546923;stroke-opacity:1;stroke-miterlimit:4;stroke-dasharray:none"
   id="text829-2" /></g>
</svg>